<svg width="128" height="128" viewBox="0 0 128 128" xmlns="http://www.w3.org/2000/svg">
  <!-- Background circle (optional, comentat per defecte) -->
  <!-- <circle cx="64" cy="64" r="60" fill="#1e1e1e" opacity="0.1"/> -->

  <!-- Letter R -->
  <g fill="#6B6B6B" stroke="none">
    <!-- Vertical stem -->
    <rect x="24" y="28" width="12" height="72" rx="2"/>

    <!-- Top horizontal bar -->
    <rect x="24" y="28" width="48" height="12" rx="2"/>

    <!-- Curved top right section -->
    <path d="M 72 28 L 84 28 C 95 28 102 35 102 46 C 102 57 95 64 84 64 L 72 64 L 72 52 L 84 52 C 87 52 90 49 90 46 C 90 43 87 40 84 40 L 72 40 Z"/>

    <!-- Diagonal leg -->
    <path d="M 70 64 L 82 64 L 100 100 L 86 100 Z"/>

    <!-- Middle horizontal bars (for speed effect) -->
    <rect x="24" y="56" width="36" height="4" rx="1"/>
    <rect x="24" y="66" width="32" height="4" rx="1"/>
    <rect x="24" y="76" width="28" height="4" rx="1"/>
  </g>
</svg>