<?xml version="1.0" encoding="UTF-8"?>
<svg xmlns="http://www.w3.org/2000/svg" xmlns:xlink="http://www.w3.org/1999/xlink" width="2000" height="2000" viewBox="0 0 2000 2000">
<path fill-rule="evenodd" fill="rgb(95.701599%, 96.875%, 98.046875%)" fill-opacity="1" d="M 1908.238281 1915.15625 L 1889.179688 1915.15625 C 1888.300781 1915.15625 1887.589844 1915.871094 1887.589844 1916.746094 L 1887.589844 1935.800781 C 1887.589844 1936.679688 1888.300781 1937.394531 1889.179688 1937.394531 L 1908.238281 1937.394531 C 1909.109375 1937.394531 1909.828125 1936.679688 1909.828125 1935.800781 L 1909.828125 1916.746094 C 1909.828125 1915.871094 1909.109375 1915.15625 1908.238281 1915.15625 "/>
<path fill-rule="evenodd" fill="rgb(95.701599%, 96.875%, 98.046875%)" fill-opacity="1" d="M 1865.28125 1916.171875 L 1847.089844 1916.171875 C 1846.261719 1916.171875 1845.578125 1916.855469 1845.578125 1917.691406 L 1845.578125 1935.875 C 1845.578125 1936.710938 1846.261719 1937.394531 1847.089844 1937.394531 L 1865.28125 1937.394531 C 1866.109375 1937.394531 1866.800781 1936.710938 1866.800781 1935.875 L 1866.800781 1917.691406 C 1866.800781 1916.855469 1866.109375 1916.171875 1865.28125 1916.171875 "/>
<path fill-rule="evenodd" fill="rgb(95.701599%, 96.875%, 98.046875%)" fill-opacity="1" d="M 1822.320312 1917.1875 L 1805.011719 1917.1875 C 1804.210938 1917.1875 1803.558594 1917.839844 1803.558594 1918.636719 L 1803.558594 1935.949219 C 1803.558594 1936.742188 1804.210938 1937.394531 1805.011719 1937.394531 L 1822.320312 1937.394531 C 1823.121094 1937.394531 1823.769531 1936.742188 1823.769531 1935.949219 L 1823.769531 1918.636719 C 1823.769531 1917.839844 1823.121094 1917.1875 1822.320312 1917.1875 "/>
<path fill-rule="evenodd" fill="rgb(95.701599%, 96.875%, 98.046875%)" fill-opacity="1" d="M 1779.371094 1918.207031 L 1762.929688 1918.207031 C 1762.171875 1918.207031 1761.550781 1918.824219 1761.550781 1919.582031 L 1761.550781 1936.019531 C 1761.550781 1936.777344 1762.171875 1937.394531 1762.929688 1937.394531 L 1779.371094 1937.394531 C 1780.121094 1937.394531 1780.738281 1936.777344 1780.738281 1936.019531 L 1780.738281 1919.582031 C 1780.738281 1918.824219 1780.121094 1918.207031 1779.371094 1918.207031 "/>
<path fill-rule="evenodd" fill="rgb(95.701599%, 96.875%, 98.046875%)" fill-opacity="1" d="M 1736.410156 1919.222656 L 1720.839844 1919.222656 C 1720.128906 1919.222656 1719.539062 1919.808594 1719.539062 1920.523438 L 1719.539062 1936.09375 C 1719.539062 1936.808594 1720.128906 1937.394531 1720.839844 1937.394531 L 1736.410156 1937.394531 C 1737.128906 1937.394531 1737.710938 1936.808594 1737.710938 1936.09375 L 1737.710938 1920.523438 C 1737.710938 1919.808594 1737.128906 1919.222656 1736.410156 1919.222656 "/>
<path fill-rule="evenodd" fill="rgb(95.701599%, 96.875%, 98.046875%)" fill-opacity="1" d="M 1693.460938 1920.238281 L 1678.761719 1920.238281 C 1678.078125 1920.238281 1677.53125 1920.792969 1677.53125 1921.46875 L 1677.53125 1936.167969 C 1677.53125 1936.84375 1678.078125 1937.394531 1678.761719 1937.394531 L 1693.460938 1937.394531 C 1694.128906 1937.394531 1694.679688 1936.84375 1694.679688 1936.167969 L 1694.679688 1921.46875 C 1694.679688 1920.792969 1694.128906 1920.238281 1693.460938 1920.238281 "/>
<path fill-rule="evenodd" fill="rgb(95.701599%, 96.875%, 98.046875%)" fill-opacity="1" d="M 1650.5 1921.257812 L 1636.671875 1921.257812 C 1636.039062 1921.257812 1635.519531 1921.777344 1635.519531 1922.414062 L 1635.519531 1936.238281 C 1635.519531 1936.875 1636.039062 1937.394531 1636.671875 1937.394531 L 1650.5 1937.394531 C 1651.140625 1937.394531 1651.648438 1936.875 1651.648438 1936.238281 L 1651.648438 1922.414062 C 1651.648438 1921.777344 1651.140625 1921.257812 1650.5 1921.257812 "/>
<path fill-rule="evenodd" fill="rgb(95.701599%, 96.875%, 98.046875%)" fill-opacity="1" d="M 1607.539062 1922.273438 L 1594.589844 1922.273438 C 1593.988281 1922.273438 1593.511719 1922.761719 1593.511719 1923.355469 L 1593.511719 1936.3125 C 1593.511719 1936.90625 1593.988281 1937.394531 1594.589844 1937.394531 L 1607.539062 1937.394531 C 1608.140625 1937.394531 1608.628906 1936.90625 1608.628906 1936.3125 L 1608.628906 1923.355469 C 1608.628906 1922.761719 1608.140625 1922.273438 1607.539062 1922.273438 "/>
<path fill-rule="evenodd" fill="rgb(95.701599%, 96.875%, 98.046875%)" fill-opacity="1" d="M 1564.589844 1923.292969 L 1552.5 1923.292969 C 1551.949219 1923.292969 1551.488281 1923.746094 1551.488281 1924.300781 L 1551.488281 1936.386719 C 1551.488281 1936.941406 1551.949219 1937.394531 1552.5 1937.394531 L 1564.589844 1937.394531 C 1565.140625 1937.394531 1565.601562 1936.941406 1565.601562 1936.386719 L 1565.601562 1924.300781 C 1565.601562 1923.746094 1565.140625 1923.292969 1564.589844 1923.292969 "/>
<path fill-rule="evenodd" fill="rgb(24.31488%, 27.050781%, 30.589294%)" fill-opacity="1" d="M 987.980469 713.691406 C 554.203125 1238.746094 744.804688 1513.925781 965.957031 1539.535156 L 965.957031 1622.691406 C 965.957031 1641.558594 981.246094 1656.847656 1000.109375 1656.847656 C 1018.96875 1656.847656 1034.269531 1641.558594 1034.269531 1622.691406 L 1034.269531 1539.535156 C 1255.410156 1513.957031 1446.019531 1238.753906 1012.261719 713.710938 C 1080.390625 715.25 1150.449219 729.371094 1254.820312 756 C 1255.660156 747.679688 1256.089844 739.351562 1256.089844 731.050781 C 1256.089844 660.308594 1227.410156 596.269531 1181.050781 549.921875 C 1162.878906 531.738281 1141.980469 516.28125 1119.03125 504.210938 C 1121.730469 488.789062 1127.308594 473.96875 1134.710938 460.710938 C 1143.488281 444.960938 1154.480469 431.839844 1165.96875 422.851562 C 1175.21875 415.609375 1184.011719 411.378906 1190.929688 411.328125 C 1192.339844 411.328125 1193.628906 411.609375 1194.710938 412.210938 C 1211.171875 421.378906 1231.941406 415.480469 1241.109375 399.03125 C 1250.289062 382.578125 1244.378906 361.808594 1227.929688 352.628906 C 1216.300781 346.140625 1203.660156 343.148438 1190.511719 343.230469 C 1168.078125 343.371094 1144.898438 352.929688 1124.050781 369.25 C 1105.441406 383.820312 1088.210938 404.03125 1075.128906 427.488281 C 1066.089844 443.699219 1058.871094 461.679688 1054.359375 480.679688 C 1036.808594 476.878906 1018.601562 474.878906 999.917969 474.878906 C 972.78125 474.878906 946.632812 479.109375 922.089844 486.929688 C 917.746094 465.621094 909.960938 445.46875 899.9375 427.488281 C 886.855469 404.03125 869.621094 383.820312 851.011719 369.25 C 830.164062 352.929688 806.984375 343.371094 784.550781 343.230469 C 771.40625 343.148438 758.769531 346.148438 747.132812 352.628906 C 730.679688 361.808594 724.78125 382.578125 733.953125 399.03125 C 743.125 415.480469 763.898438 421.378906 780.351562 412.210938 C 781.4375 411.609375 782.722656 411.328125 784.140625 411.328125 C 791.058594 411.378906 799.851562 415.609375 809.097656 422.851562 C 820.582031 431.839844 831.578125 444.960938 840.359375 460.710938 C 849.9375 477.890625 856.476562 497.679688 857.644531 518 C 843.65625 527.359375 830.640625 538.058594 818.785156 549.921875 C 772.425781 596.269531 743.753906 660.308594 743.753906 731.050781 C 743.753906 739.328125 744.175781 747.621094 745.007812 755.910156 C 849.605469 729.191406 919.761719 715.140625 987.980469 713.691406 "/>
<path fill-rule="evenodd" fill="rgb(95.701599%, 96.875%, 98.046875%)" fill-opacity="1" d="M 729.730469 1218.910156 C 726.722656 1248.734375 726.789062 1276.578125 729.78125 1302.269531 C 821.863281 1314.699219 913.363281 1320.382812 1004.328125 1319.914062 C 1093.621094 1319.453125 1182.328125 1313.074219 1270.511719 1301.34375 C 1273.429688 1275.664062 1273.488281 1247.871094 1270.421875 1218.078125 C 1182.011719 1230.597656 1093.191406 1237.414062 1003.910156 1237.875 C 913.09375 1238.34375 821.71875 1232.25 729.730469 1218.910156 "/>
<path fill-rule="evenodd" fill="rgb(95.701599%, 96.875%, 98.046875%)" fill-opacity="1" d="M 793.355469 1008.652344 C 780.460938 1035.890625 769.570312 1062.113281 760.679688 1087.273438 C 842.265625 1098.898438 923.355469 1104.214844 1003.980469 1103.761719 C 1082.878906 1103.316406 1161.28125 1097.355469 1239.230469 1086.390625 C 1230.300781 1061.234375 1219.378906 1035.011719 1206.449219 1007.785156 C 1139.109375 1016.566406 1071.5 1021.335938 1003.609375 1021.722656 C 933.886719 1022.113281 863.816406 1017.890625 793.355469 1008.652344 "/>
<path fill-rule="nonzero" fill="rgb(95.701599%, 96.875%, 98.046875%)" fill-opacity="1" d="M 1045.761719 691.410156 C 1436.890625 661.808594 1656.269531 776.101562 1755.25 918.039062 C 1834.820312 1032.148438 1837.179688 1164.488281 1788.769531 1258.570312 C 1738.230469 1356.804688 1634.410156 1414.4375 1504.921875 1372.46875 C 1359.949219 1325.480469 1181.121094 1145.953125 1016.738281 738.078125 L 999.347656 694.929688 L 1045.761719 691.410156 "/>
<path fill="none" stroke-width="239.998" stroke-linecap="round" stroke-linejoin="round" stroke="rgb(24.31488%, 27.050781%, 30.589294%)" stroke-opacity="1" stroke-miterlimit="2.61313" d="M 10457.617188 13085.898438 C 14368.90625 13381.914062 16562.695312 12238.984375 17552.5 10819.609375 C 18348.203125 9678.515625 18371.796875 8355.117188 17887.695312 7414.296875 C 17382.304688 6431.953125 16344.101562 5855.625 15049.21875 6275.3125 C 13599.492188 6745.195312 11811.210938 8540.46875 10167.382812 12619.21875 L 9993.476562 13050.703125 Z M 10457.617188 13085.898438 " transform="matrix(0.1, 0, 0, -0.1, 0, 2000)"/>
<path fill-rule="nonzero" fill="rgb(95.701599%, 96.875%, 98.046875%)" fill-opacity="1" d="M 954.164062 691.410156 C 563.023438 661.808594 343.652344 776.101562 244.671875 918.039062 C 165.101562 1032.148438 162.742188 1164.488281 211.148438 1258.570312 C 261.691406 1356.804688 365.511719 1414.4375 495.003906 1372.46875 C 639.972656 1325.480469 818.804688 1145.953125 983.183594 738.078125 L 1000.570312 694.929688 L 954.164062 691.410156 "/>
<path fill="none" stroke-width="239.998" stroke-linecap="round" stroke-linejoin="round" stroke="rgb(24.31488%, 27.050781%, 30.589294%)" stroke-opacity="1" stroke-miterlimit="2.61313" d="M 9541.640625 13085.898438 C 5630.234375 13381.914062 3436.523438 12238.984375 2446.71875 10819.609375 C 1651.015625 9678.515625 1627.421875 8355.117188 2111.484375 7414.296875 C 2616.914062 6431.953125 3655.117188 5855.625 4950.039062 6275.3125 C 6399.726562 6745.195312 8188.046875 8540.46875 9831.835938 12619.21875 L 10005.703125 13050.703125 Z M 9541.640625 13085.898438 " transform="matrix(0.1, 0, 0, -0.1, 0, 2000)"/>
</svg>
